HIERARCHY
ROOT Hips
{
	OFFSET -0.179506 -22.333345 2.821913
	CHANNELS 6 Xposition Yposition Zposition Zrotation Yrotation Xrotation 
	JOINT LeftUpLeg
	{
		OFFSET 6.951974 -9.140623 -0.681533
		CHANNELS 3 Zrotation Yrotation Xrotation
		JOINT LeftLeg
		{
			OFFSET 3.427654 -37.519855 -0.449580
			CHANNELS 3 Zrotation Yrotation Xrotation
			JOINT LeftFoot
			{
				OFFSET -1.359570 -39.796059 -4.369333
				CHANNELS 3 Zrotation Yrotation Xrotation
				JOINT LeftToe
				{
					OFFSET 2.635814 -5.579078 11.928840
					CHANNELS 3 Zrotation Yrotation Xrotation
					End Site
					{
						OFFSET 0.000000 0.000000 0.000000
					}
				}
			}
		}
	}
	JOINT RightUpLeg
	{
		OFFSET -6.767048 -9.052170 -0.431982
		CHANNELS 3 Zrotation Yrotation Xrotation
		JOINT RightLeg
		{
			OFFSET -3.829005 -38.256897 -0.885003
			CHANNELS 3 Zrotation Yrotation Xrotation
			JOINT RightFoot
			{
				OFFSET 1.577377 -39.841461 -4.231180
				CHANNELS 3 Zrotation Yrotation Xrotation
				JOINT RightToe
				{
					OFFSET -2.537174 -4.814398 12.334795
					CHANNELS 3 Zrotation Yrotation Xrotation
					End Site
					{
						OFFSET 0.000000 0.000000 0.000000
					}
				}
			}
		}
	}
	JOINT Spine
	{
		OFFSET -0.253288 10.896323 -2.669631
		CHANNELS 3 Zrotation Yrotation Xrotation
		JOINT Spine1
		{
			OFFSET 0.548704 13.518043 0.109247
			CHANNELS 3 Zrotation Yrotation Xrotation
			JOINT Spine2
			{
				OFFSET 0.145701 5.292222 2.542457
				CHANNELS 3 Zrotation Yrotation Xrotation
				JOINT Neck
				{
					OFFSET -0.277840 21.387037 -4.285703
					CHANNELS 3 Zrotation Yrotation Xrotation
					JOINT Head
					{
						OFFSET 0.515184 6.496960 5.134897
						CHANNELS 3 Zrotation Yrotation Xrotation
						End Site
						{
							OFFSET 0.000000 0.000000 0.000000
						}
					}
				}
				JOINT LeftShoulder
				{
					OFFSET 7.884473 12.174932 -3.408961
					CHANNELS 3 Zrotation Yrotation Xrotation
					JOINT LeftArm
					{
						OFFSET 9.097692 3.046888 -0.886815
						CHANNELS 3 Zrotation Yrotation Xrotation
						JOINT LeftForeArm
						{
							OFFSET 25.961220 -1.277207 -2.745643
							CHANNELS 3 Zrotation Yrotation Xrotation
							JOINT LeftHand
							{
								OFFSET 24.923361 0.898606 -0.117091
								CHANNELS 3 Zrotation Yrotation Xrotation
								End Site
								{
									OFFSET 0.000000 0.000000 0.000000
								}
							}
						}
					}
				}
				JOINT RightShoulder
				{
					OFFSET -8.175920 11.883285 -3.861528
					CHANNELS 3 Zrotation Yrotation Xrotation
					JOINT RightArm
					{
						OFFSET -9.601238 3.255117 -0.914307
						CHANNELS 3 Zrotation Yrotation Xrotation
						JOINT RightForeArm
						{
							OFFSET -25.374195 -1.332924 -2.140099
							CHANNELS 3 Zrotation Yrotation Xrotation
							JOINT RightHand
							{
								OFFSET -25.529810 0.777228 -0.555919
								CHANNELS 3 Zrotation Yrotation Xrotation
								End Site
								{
									OFFSET 0.000000 0.000000 0.000000
								}
							}
						}
					}
				}
			}
		}
	}
}
MOTION
Frames: 10
Frame Time: 0.033333
-82.189987 -14.930148 98.798347 132.086806 -4.005904 84.156928 2.512586 -2.870774 -5.275139 -6.152313 -2.049756 11.407205 6.061501 10.929229 -3.542029 nan nan nan -7.468583 1.312986 -2.005741 3.330723 -0.420146 61.254277 7.857036 -1.606122 10.067662 nan nan nan -4.795618 2.268301 4.871320 1.480180 -2.862089 11.433844 -3.240005 0.151515 0.114636 3.055419 -4.671467 12.053685 0.409649 -9.336145 4.544097 -22.900721 4.275031 -2.917319 -60.903701 -1.578472 11.796684 18.588110 -20.871169 -17.243753 -12.160856 -14.130184 3.725175 25.137298 0.895278 -0.618403 66.125230 3.940484 11.641243 -15.329811 21.180348 -14.667169 9.249622 9.615391 -3.955178 
-81.597389 -14.175081 98.913506 132.050194 -3.860159 84.004471 2.538980 -2.777405 -4.246695 -6.202496 -2.385296 10.947628 6.131767 11.250755 -3.824738 nan nan nan -7.172593 1.198192 -2.854415 3.379362 -0.829269 62.203228 7.598826 -1.539673 9.080843 nan nan nan -4.753679 1.731698 4.875953 1.570822 -2.951586 11.640351 -3.232129 0.091365 0.108511 2.943647 -4.553678 12.082486 0.317435 -9.375438 4.567304 -22.992337 3.996858 -2.987571 -60.539670 -2.266737 11.675492 18.484116 -20.552769 -17.407946 -12.094215 -14.310536 4.622785 25.108686 0.943516 -0.572630 66.217483 3.726700 11.505263 -15.260293 21.219934 -14.357223 9.314291 9.491040 -3.308738 
-81.063461 -13.493225 99.034447 131.843219 -3.656923 83.947563 2.650766 -2.529672 -3.359297 -6.246833 -2.710807 10.510839 6.108684 11.602039 -4.118003 nan nan nan -6.815560 1.334061 -3.963882 3.600505 -1.298381 63.083588 7.425045 -1.557485 8.102349 nan nan nan -4.642472 1.359822 5.025720 1.692108 -2.933745 11.582194 -3.167278 -0.036830 0.128619 2.695956 -4.528843 12.180323 0.326569 -9.268681 4.476516 -23.059214 3.765343 -3.111517 -60.411584 -3.089053 11.551942 18.658685 -20.426006 -18.315677 -11.973847 -13.809994 4.604135 25.040432 0.771288 -0.674079 66.195114 3.541295 11.302871 -14.997173 21.390205 -13.921017 9.492178 9.280668 -2.961534 
-80.544006 -12.828519 99.151672 131.692983 -3.479689 83.935720 2.707111 -2.251742 -2.574145 -6.211444 -2.995778 10.165507 6.022695 11.786386 -4.468668 nan nan nan -6.523939 1.359334 -5.136275 3.911483 -1.736617 63.802763 7.250149 -1.476780 7.286814 nan nan nan -4.513977 0.965808 5.171679 1.809984 -2.946806 11.447779 -3.174082 -0.209398 0.191051 2.391160 -4.561511 12.277175 0.492860 -9.149894 4.402435 -23.099977 3.628460 -3.285597 -60.115923 -3.717004 11.566543 18.699162 -20.771026 -18.995338 -11.774437 -13.307273 4.449607 25.069817 0.463725 -0.832187 66.048610 3.384993 11.106978 -14.439244 21.627881 -13.514884 9.440334 9.329286 -2.704605 
-80.032448 -12.201910 99.270340 131.569998 -3.350201 83.947163 2.717339 -1.992877 -1.876517 -6.128069 -3.180586 9.891493 5.835872 11.877037 -4.758967 nan nan nan -6.216193 1.393301 -6.311439 4.255359 -2.105881 64.351026 7.197268 -1.390211 6.444148 nan nan nan -4.453739 0.585273 5.375668 1.899672 -2.998334 11.101772 -3.147810 -0.336995 0.365674 2.155265 -4.463682 12.295273 0.658180 -9.052014 4.374186 -23.019013 3.478561 -3.420878 -59.787860 -4.269643 11.603447 18.505274 -21.031117 -19.251029 -11.348440 -13.176208 4.540912 25.092266 0.278958 -0.883609 65.977395 3.232464 10.870704 -13.999912 21.766591 -13.336036 9.213173 9.341811 -2.629968 
-79.490417 -11.599685 99.381462 131.405590 -3.175243 83.944288 2.823911 -1.663241 -1.094096 -6.098245 -3.422465 9.482064 5.756680 12.013526 -5.022448 nan nan nan -5.788903 1.449386 -7.430274 4.678216 -2.371390 64.701465 7.137873 -1.296200 5.667124 nan nan nan -4.426269 0.184526 5.457012 2.015565 -3.043185 11.023402 -3.097187 -0.398751 0.387417 1.942361 -4.197186 12.166740 0.697154 -8.943498 4.495206 -22.901548 3.249487 -3.419753 -59.524817 -4.879126 11.636558 18.445349 -21.196475 -19.463305 -11.101557 -13.027633 4.541852 25.104723 0.218853 -0.790583 65.969635 3.103198 10.725857 -13.901411 21.875511 -13.408998 8.996681 9.013028 -3.084679 
-78.940384 -10.993568 99.498825 131.176862 -3.009417 83.913134 2.903623 -1.332572 -0.281896 -6.052922 -3.671967 9.104628 5.667839 12.197145 -5.287174 nan nan nan -5.417011 1.471902 -8.474886 5.152391 -2.611758 64.793777 7.073832 -1.046609 5.087982 nan nan nan -4.423996 -0.180533 5.467263 2.126824 -3.054727 11.134983 -3.033379 -0.443199 0.338037 1.834934 -4.056025 12.092831 0.827373 -8.962692 4.537017 -22.807716 3.039954 -3.403029 -59.263041 -5.596829 11.610260 18.351543 -21.388863 -19.746453 -10.901339 -12.952444 4.654233 25.147827 0.194001 -0.736658 65.915044 2.940209 10.605389 -13.802448 21.908363 -13.343149 8.804791 8.668456 -3.131775 
-78.412155 -10.393692 99.615067 131.043255 -2.905171 83.921745 2.901956 -1.138018 0.484946 -6.003707 -3.967117 8.686877 5.616328 12.433124 -5.526012 nan nan nan -5.146057 1.518020 -9.511511 5.564692 -2.954327 64.627842 6.996336 -0.844879 4.555655 nan nan nan -4.513602 -0.593609 5.507803 2.288220 -3.095913 11.198052 -2.946155 -0.509463 0.242870 1.769758 -4.159885 12.050512 0.930775 -9.016864 4.602045 -22.847159 2.842520 -3.458144 -58.927373 -6.251341 11.619198 18.287702 -21.592695 -20.051673 -10.568858 -13.014547 4.892750 25.144639 0.173331 -0.793932 65.826341 2.627439 10.546099 -13.623121 22.039899 -13.127140 8.655745 8.698240 -2.828032 
-77.893982 -9.794803 99.711487 130.995433 -2.831070 83.909492 2.852090 -0.977014 1.343118 -5.917974 -4.326645 8.115961 5.539206 12.662417 -5.659660 nan nan nan -4.950795 1.535471 -10.477867 5.941239 -3.400124 64.350865 6.960611 -0.743487 3.773651 nan nan nan -4.575926 -1.030586 5.679546 2.416854 -3.171319 10.999365 -2.903441 -0.617535 0.290722 1.628450 -4.146533 11.918543 1.128906 -9.013478 4.712379 -22.800391 2.702395 -3.468344 -58.638444 -6.895216 11.695625 18.283833 -21.843152 -20.103730 -10.271194 -13.205894 5.164697 25.129195 0.130033 -0.796826 65.804613 2.348065 10.514002 -13.499896 22.255371 -12.861077 8.602092 9.092984 -2.837214 
-77.375465 -9.210462 99.781937 130.874826 -2.712417 83.956190 2.899942 -0.774185 2.077663 -5.872450 -4.553222 7.656356 5.410166 12.824260 -5.825107 nan nan nan -4.720339 1.565241 -11.501558 6.308943 -3.856783 63.969580 7.047542 -0.594894 3.056561 nan nan nan -4.561018 -1.434917 5.759389 2.515987 -3.243574 10.745833 -2.861696 -0.706753 0.427542 1.508715 -3.957527 11.770621 1.356736 -9.089653 4.675544 -22.651944 2.542351 -3.543833 -58.471578 -7.431440 11.887495 18.310134 -22.064143 -20.039860 -9.671529 -13.611026 5.205180 25.148390 0.157220 -0.786613 65.780201 2.034556 10.513738 -13.473447 22.490669 -12.694469 8.289947 9.511913 -3.141376 
